<svg xmlns="http://www.w3.org/2000/svg" xmlns:xlink="http://www.w3.org/1999/xlink" aria-hidden="true" role="img" width="64" height="64" viewBox="0 0 16 16" style="color: rgb(74, 85, 101); opacity: 1; transform: rotate(0deg);"><path fill="currentColor" d="M1.5 1.75V13.5h13.75a.75.75 0 0 1 0 1.5H.75a.75.75 0 0 1-.75-.75V1.75a.75.75 0 0 1 1.5 0m14.28 2.53l-5.25 5.25a.75.75 0 0 1-1.06 0L7 7.06L4.28 9.78a.75.75 0 0 1-1.042-.018a.75.75 0 0 1-.018-1.042l3.25-3.25a.75.75 0 0 1 1.06 0L10 7.94l4.72-4.72a.75.75 0 0 1 1.042.018a.75.75 0 0 1 .018 1.042"></path></svg>